<!DOCTYPE svg PUBLIC "-//W3C//DTD SVG 20010904//EN" "http://www.w3.org/TR/2001/REC-SVG-20010904/DTD/svg10.dtd">
<svg version="1.0" xmlns="http://www.w3.org/2000/svg" width="499px" height="500px" viewBox="0 0 4990 5000" preserveAspectRatio="xMidYMid meet">
<g id="layer101" fill="#0b304a" stroke="none">
<path d="M2058 3439 c-26 -15 -22 -30 6 -23 37 9 40 -12 6 -37 -33 -25 -38 -50 -16 -69 19 -15 58 -9 64 9 3 10 -2 12 -22 7 -34 -9 -35 16 -1 38 30 20 33 61 6 76 -23 12 -22 12 -43 -1z"/>
<path d="M2422 3439 c-30 -11 -18 -31 14 -23 33 8 32 -18 -2 -40 -18 -13 -24 -24 -22 -44 2 -22 8 -27 32 -27 16 0 31 6 34 13 2 7 -4 11 -19 10 -31 -4 -34 16 -4 32 58 31 29 102 -33 79z"/>
<path d="M2528 3439 c-26 -15 -22 -28 8 -26 36 3 41 -16 9 -33 -30 -16 -41 -46 -24 -66 15 -18 61 -15 67 5 3 10 -2 12 -22 7 -34 -9 -35 16 -1 38 30 20 33 61 6 76 -23 12 -22 12 -43 -1z"/>
<path d="M2840 3443 c-51 -19 -68 -85 -30 -123 24 -24 77 -27 106 -6 24 18 10 34 -16 18 -28 -17 -54 -15 -75 8 -39 43 17 102 68 71 14 -9 22 -10 30 -2 7 7 0 15 -26 26 -20 8 -38 15 -39 14 -2 0 -10 -3 -18 -6z"/>
<path d="M3222 3438 c-7 -7 -12 -35 -12 -64 0 -32 -5 -55 -12 -58 -10 -5 -10 -7 0 -12 6 -3 12 -17 12 -30 0 -15 6 -24 15 -24 9 0 15 9 15 25 0 16 6 25 15 25 8 0 15 5 15 10 0 6 -7 10 -15 10 -19 0 -22 96 -3 102 6 2 8 10 4 16 -9 15 -19 15 -34 0z"/>
<path d="M1466 3414 c-60 -60 -14 -164 72 -164 24 0 49 7 63 19 34 27 17 37 -28 16 -33 -16 -40 -16 -63 -4 -90 51 -29 171 65 126 39 -19 56 -6 23 17 -36 26 -101 21 -132 -10z"/>
<path d="M1650 3345 c0 -78 3 -95 15 -95 12 0 15 17 15 95 0 78 -3 95 -15 95 -12 0 -15 -17 -15 -95z"/>
<path d="M1725 3424 c-17 -17 -22 -124 -5 -124 6 0 10 18 10 41 0 46 14 79 35 79 22 0 45 -41 45 -82 0 -21 5 -38 10 -38 6 0 10 29 10 68 l0 68 -45 2 c-29 1 -49 -4 -60 -14z"/>
<path d="M1874 3431 c-2 -2 -4 -44 -4 -93 0 -72 3 -88 15 -88 10 0 15 10 15 30 0 27 2 29 25 20 46 -18 95 17 95 68 0 11 -9 31 -21 46 -18 22 -27 26 -70 24 -28 -1 -52 -4 -55 -7z m104 -23 c7 -7 12 -24 12 -38 0 -31 -17 -50 -45 -50 -29 0 -45 19 -45 52 0 40 50 64 78 36z"/>
<path d="M2224 3408 c56 -128 70 -158 76 -158 6 0 90 173 90 185 0 3 -6 5 -14 5 -7 0 -19 -13 -26 -30 -11 -26 -18 -30 -50 -30 -32 0 -39 4 -50 30 -7 17 -19 30 -26 30 -12 0 -12 -5 0 -32z m96 -62 c0 -12 -13 -36 -20 -36 -4 0 -10 9 -13 20 -4 15 0 20 14 20 10 0 19 -2 19 -4z"/>
<path d="M2635 3420 c-23 -25 -22 -78 2 -101 46 -45 123 -13 123 51 0 62 -84 95 -125 50z m91 -25 c17 -26 -2 -69 -33 -73 -24 -4 -53 22 -53 48 0 47 60 64 86 25z"/>
<path d="M2960 3370 c0 -53 3 -71 13 -67 8 2 12 25 12 67 0 42 -4 65 -12 68 -10 3 -13 -15 -13 -68z"/>
<path d="M3031 3414 c-12 -15 -21 -33 -21 -40 0 -48 60 -96 96 -76 9 5 25 7 35 5 17 -5 19 1 19 65 l0 69 -54 2 c-48 1 -57 -2 -75 -25z m88 -8 c17 -20 10 -67 -11 -79 -27 -18 -68 7 -68 41 0 15 5 33 12 40 16 16 53 15 67 -2z"/>
<path d="M3290 3370 c0 -40 4 -70 10 -70 6 0 10 30 10 70 0 40 -4 70 -10 70 -6 0 -10 -30 -10 -70z"/>
<path d="M3360 3420 c-11 -11 -20 -33 -20 -50 0 -63 77 -96 122 -52 47 47 18 122 -48 122 -21 0 -42 -8 -54 -20z m84 -16 c30 -30 9 -84 -33 -84 -25 0 -41 20 -41 50 0 47 42 66 74 34z"/>
<path d="M3520 3372 l0 -68 50 -2 c40 -2 51 2 60 17 13 25 13 121 0 121 -5 0 -10 -18 -10 -41 0 -46 -14 -79 -35 -79 -27 0 -45 31 -45 76 0 24 -4 44 -10 44 -6 0 -10 -29 -10 -68z"/>
<path d="M2960 3265 c0 -8 7 -15 15 -15 8 0 15 7 15 15 0 8 -7 15 -15 15 -8 0 -15 -7 -15 -15z"/>
<path d="M3287 3274 c-9 -10 2 -24 19 -24 8 0 14 7 14 15 0 15 -21 21 -33 9z"/>
<path d="M2143 3153 c-15 -5 -17 -33 -3 -33 6 0 10 -42 10 -105 0 -87 3 -105 15 -105 12 0 15 20 15 119 0 120 -5 135 -37 124z"/>
<path d="M815 3068 c54 -129 104 -233 111 -233 6 0 124 248 124 262 0 1 -8 3 -19 3 -13 0 -24 -14 -35 -45 l-18 -45 -51 0 -52 0 -18 45 c-13 30 -25 45 -37 45 -18 0 -18 -3 -5 -32z m133 -118 c-14 -43 -23 -44 -41 -5 l-17 35 35 0 c33 0 34 0 23 -30z"/>
<path d="M1091 3043 c18 -32 38 -67 46 -78 20 -30 16 -35 -27 -35 -29 0 -40 -4 -40 -15 0 -12 14 -15 63 -15 35 0 66 3 69 6 4 3 -14 39 -38 80 -24 41 -44 77 -44 79 0 3 20 5 45 5 33 0 45 4 45 15 0 12 -15 15 -76 15 l-75 0 32 -57z"/>
<path d="M1273 3085 c-12 -8 -27 -31 -33 -50 -23 -69 22 -135 90 -135 42 0 67 15 85 50 29 55 23 60 -65 60 -85 0 -99 10 -62 43 26 23 61 21 89 -5 19 -17 26 -19 36 -9 9 10 6 17 -16 37 -33 28 -91 32 -124 9z m117 -115 c0 -5 -11 -17 -25 -26 -30 -20 -70 -12 -85 16 -10 19 -7 20 50 20 33 0 60 -4 60 -10z"/>
<path d="M1460 3004 c0 -85 2 -95 18 -92 9 1 23 -1 30 -6 16 -9 42 -1 42 14 0 6 -11 15 -24 19 -25 10 -36 44 -36 117 0 32 -4 44 -15 44 -12 0 -15 -17 -15 -96z"/>
<path d="M1587 3093 c-9 -8 -9 -247 -1 -256 16 -15 34 8 34 44 0 37 1 38 24 28 35 -17 92 -3 116 28 12 16 20 41 20 65 0 72 -78 121 -140 88 -13 -7 -21 -7 -25 0 -7 12 -19 13 -28 3z m140 -45 c30 -28 29 -63 -2 -93 -46 -47 -105 -21 -105 45 0 64 61 92 107 48z"/>
<path d="M1855 3076 c-79 -79 -4 -206 99 -168 22 9 32 9 37 1 17 -29 29 7 29 91 0 88 -9 112 -33 91 -8 -6 -18 -6 -27 -1 -28 18 -80 11 -105 -14z m115 -33 c25 -32 20 -69 -12 -95 -28 -25 -55 -22 -83 7 -30 30 -31 54 -4 89 28 35 70 35 99 -1z"/>
<path d="M2070 3005 c0 -78 3 -95 15 -95 12 0 15 17 15 95 0 78 -3 95 -15 95 -12 0 -15 -17 -15 -95z"/>
<path d="M2264 3082 c-54 -43 -58 -100 -10 -148 36 -36 70 -43 108 -23 15 8 22 8 28 -1 19 -30 30 5 30 96 0 74 -3 94 -14 94 -8 0 -16 -5 -18 -11 -3 -9 -9 -9 -25 0 -31 16 -75 13 -99 -7z m106 -32 c27 -27 25 -66 -5 -95 -37 -38 -76 -32 -100 16 -36 68 51 133 105 79z"/>
<path d="M2477 3093 c-4 -3 -7 -46 -7 -95 l0 -88 33 1 c17 0 43 -2 57 -6 18 -5 33 0 53 15 25 20 27 26 27 101 0 64 -3 79 -15 79 -12 0 -15 -14 -15 -69 0 -78 -16 -106 -54 -95 -35 10 -46 34 -46 101 0 46 -4 63 -13 63 -8 0 -17 -3 -20 -7z"/>
<path d="M2794 3087 c-2 -7 -3 -65 -2 -128 l3 -114 35 -3 c95 -8 156 49 114 105 -12 15 -31 30 -44 33 -22 5 -21 7 19 57 22 29 41 55 41 58 0 3 -9 5 -19 5 -12 0 -37 -24 -65 -62 l-46 -62 0 62 c0 49 -3 62 -15 62 -9 0 -18 -6 -21 -13z m114 -146 c8 -4 12 -19 10 -32 -2 -20 -9 -24 -45 -27 l-43 -3 0 35 c0 34 2 36 33 36 17 0 38 -4 45 -9z"/>
<path d="M3029 3071 c-31 -31 -39 -83 -19 -122 13 -24 61 -49 94 -49 34 0 82 43 89 80 20 98 -94 161 -164 91z m109 -17 c32 -22 30 -76 -4 -103 -34 -27 -50 -26 -79 4 -62 61 11 150 83 99z"/>
<path d="M3244 3087 c-2 -7 -3 -67 -2 -133 2 -98 6 -119 18 -119 10 0 16 13 18 41 3 41 3 42 31 31 63 -23 131 25 131 93 0 74 -77 124 -140 90 -13 -7 -21 -7 -25 0 -9 14 -25 12 -31 -3z m145 -43 c12 -15 21 -35 21 -46 0 -25 -44 -68 -68 -68 -33 0 -65 34 -65 68 0 68 72 97 112 46z"/>
<path d="M3513 3082 c-51 -40 -52 -114 -1 -157 94 -80 217 58 129 146 -35 34 -92 39 -128 11z m104 -34 c30 -28 29 -63 -2 -93 -29 -30 -45 -31 -79 -4 -18 14 -26 30 -26 51 0 63 61 89 107 46z"/>
<path d="M3747 3093 c-4 -3 -7 -42 -7 -85 0 -63 -3 -78 -15 -78 -8 0 -15 -7 -15 -15 0 -8 6 -15 14 -15 9 0 16 -12 18 -32 4 -42 22 -43 26 -2 2 22 9 34 23 37 25 7 25 27 -1 27 -18 0 -20 7 -20 70 0 56 3 70 15 70 8 0 15 7 15 15 0 15 -40 21 -53 8z"/>
<path d="M3840 3005 c0 -78 3 -95 15 -95 12 0 15 17 15 95 0 78 -3 95 -15 95 -12 0 -15 -17 -15 -95z"/>
<path d="M3949 3071 c-48 -49 -38 -125 21 -156 42 -22 85 -19 117 9 36 31 24 44 -21 22 -44 -21 -58 -20 -90 5 -71 55 18 155 92 103 22 -15 42 -12 42 6 0 16 -57 40 -95 40 -27 0 -44 -8 -66 -29z"/>
<path d="M4150 3085 c-20 -24 2 -40 29 -24 17 12 23 11 37 -2 14 -15 12 -19 -25 -48 -44 -35 -53 -68 -25 -95 19 -20 58 -21 74 -1 17 21 4 38 -21 25 -11 -6 -24 -8 -29 -5 -19 12 -10 35 20 50 44 23 57 57 36 90 -19 29 -75 35 -96 10z"/>
<path d="M2065 2870 c-4 -7 -3 -16 3 -22 14 -14 45 -2 40 15 -6 16 -34 21 -43 7z"/>
<path d="M2145 2871 c-9 -16 3 -31 26 -31 14 0 19 6 17 17 -4 20 -33 29 -43 14z"/>
<path d="M3835 2870 c-4 -7 -3 -16 3 -22 14 -14 45 -2 40 15 -6 16 -34 21 -43 7z"/>
<path d="M2332 2486 c-78 -138 -63 -131 -266 -131 -219 0 -226 -3 -226 -104 0 -54 -4 -74 -21 -95 -12 -15 -19 -37 -17 -53 2 -18 -5 -35 -19 -49 -18 -18 -21 -29 -16 -58 7 -44 -6 -62 -53 -70 -23 -5 -39 -15 -46 -30 -9 -20 -2 -39 51 -133 67 -121 73 -151 42 -212 -62 -121 -14 -313 111 -446 102 -109 240 -182 398 -211 99 -18 107 -17 130 6 20 20 20 33 20 831 0 775 -2 849 -28 849 -4 0 -31 -42 -60 -94z"/>
<path d="M2560 2567 l-25 -13 -3 -204 -2 -205 39 -2 c103 -6 292 -59 323 -91 11 -11 26 -69 44 -167 14 -82 30 -157 35 -166 4 -8 48 -44 98 -79 57 -40 91 -71 91 -82 0 -10 -3 -18 -6 -18 -8 0 -200 138 -212 153 -6 7 -22 75 -37 152 -14 77 -28 150 -31 162 -2 12 -13 27 -23 33 -21 11 -219 63 -283 74 l-38 7 0 -380 c0 -306 -3 -391 -15 -438 -21 -81 -16 -273 10 -390 7 -32 52 -43 132 -32 230 31 419 148 540 333 25 39 64 88 85 109 l38 38 0 126 c0 122 -1 126 -25 149 -14 13 -34 28 -45 34 -29 15 -73 86 -109 171 -18 43 -57 115 -88 160 -54 80 -57 87 -55 144 1 52 10 76 62 178 33 65 60 132 60 148 0 59 -45 78 -235 99 -127 14 -294 12 -325 -3z"/>
</g>
<g id="layer102" fill="#515e6d" stroke="none">
<path d="M2560 2567 c-16 -8 -26 -23 -28 -41 -3 -24 8 -41 70 -104 40 -41 65 -72 56 -69 -10 4 -18 2 -18 -3 0 -6 -5 -10 -11 -10 -6 0 -8 7 -5 16 4 12 2 15 -9 10 -8 -3 -14 0 -12 7 1 7 -7 11 -21 10 -13 -2 -21 1 -18 6 6 10 -24 25 -32 16 -3 -3 1 -5 8 -5 11 0 11 -3 2 -12 -8 -8 -12 -51 -12 -127 l0 -116 39 -2 c103 -6 292 -59 323 -91 11 -11 26 -69 44 -167 14 -82 30 -157 35 -166 4 -8 48 -44 98 -79 57 -40 91 -71 91 -82 0 -10 -3 -18 -6 -18 -8 0 -200 138 -212 153 -6 7 -22 75 -37 152 -14 77 -28 150 -31 162 -2 12 -13 27 -23 33 -21 11 -219 63 -283 74 l-38 7 0 -380 c0 -306 -3 -391 -15 -438 -8 -31 -15 -88 -15 -125 0 -93 21 -268 32 -268 5 0 7 -4 4 -9 -12 -19 52 -30 121 -20 71 10 204 46 213 58 3 4 28 20 55 36 95 55 245 225 245 278 0 10 14 21 40 28 22 7 56 27 75 46 l35 34 0 127 c0 142 7 127 -89 197 -19 14 -32 25 -28 25 3 0 -4 11 -17 25 -13 14 -33 25 -45 25 -42 0 -59 20 -157 175 -53 85 -117 178 -141 206 -25 29 -43 61 -43 75 0 27 10 30 48 10 17 -8 52 -12 92 -11 l64 3 58 111 c99 190 84 212 -177 241 -126 14 -294 12 -325 -3z m317 -1223 c91 -67 96 -167 13 -238 -118 -98 -304 -14 -287 131 5 47 30 81 82 115 41 26 152 22 192 -8z"/>
</g>
<g id="layer103" fill="#1c679a" stroke="none">
<path d="M2560 2567 c-16 -8 -26 -23 -28 -41 -3 -24 8 -41 70 -104 40 -41 65 -72 56 -69 -10 4 -18 2 -18 -3 0 -6 -5 -10 -11 -10 -6 0 -8 7 -5 16 4 12 2 15 -9 10 -8 -3 -14 0 -12 7 1 7 -7 11 -21 10 -13 -2 -21 1 -18 6 6 10 -24 25 -32 16 -3 -3 1 -5 8 -5 11 0 11 -3 2 -12 -8 -8 -12 -50 -12 -124 l0 -112 73 -12 c147 -24 265 -60 291 -89 8 -9 26 -83 41 -166 15 -82 31 -157 36 -166 4 -8 48 -44 98 -79 57 -40 91 -71 91 -82 0 -10 -3 -18 -6 -18 -7 0 -171 117 -201 143 -17 15 -27 49 -48 165 -15 81 -31 157 -35 169 -7 16 -28 27 -80 43 -97 29 -242 60 -252 54 -4 -3 -8 -173 -8 -379 0 -300 -3 -385 -15 -432 -8 -31 -15 -88 -15 -125 0 -93 21 -268 32 -268 5 0 7 -4 4 -9 -12 -19 52 -30 121 -20 71 10 204 46 213 58 3 4 28 20 55 36 95 55 245 225 245 278 0 10 14 21 40 28 22 7 56 27 75 46 l35 34 0 127 c0 142 7 127 -89 197 -19 14 -32 25 -28 25 3 0 -4 11 -17 25 -13 14 -33 25 -45 25 -42 0 -59 20 -157 175 -53 85 -117 178 -141 206 -25 29 -43 61 -43 75 0 27 10 30 48 10 17 -8 52 -12 92 -11 l64 3 58 111 c99 190 84 212 -177 241 -126 14 -294 12 -325 -3z m317 -1223 c91 -67 96 -167 13 -238 -118 -98 -304 -14 -287 131 5 47 30 81 82 115 41 26 152 22 192 -8z"/>
</g>
<g id="layer104" fill="#2894b9" stroke="none">
<path d="M2701 1404 c-85 -25 -151 -104 -151 -181 1 -158 199 -253 347 -167 65 38 93 86 93 159 0 49 -5 69 -27 102 -50 78 -165 116 -262 87z m175 -59 c16 -11 32 -18 37 -17 4 1 6 -1 5 -5 -1 -5 6 -22 15 -40 30 -56 18 -122 -32 -167 -11 -10 -18 -23 -14 -29 3 -5 1 -7 -5 -4 -12 8 -44 -2 -38 -12 2 -3 -32 -6 -75 -7 -46 0 -74 3 -67 7 11 7 10 9 0 9 -8 0 -26 9 -42 20 -15 11 -31 16 -35 12 -5 -4 -5 -2 -2 4 4 6 -1 26 -9 44 -25 48 -14 114 25 154 17 18 28 36 24 41 -5 4 -2 5 4 1 7 -4 21 -2 30 4 29 17 145 8 179 -15z"/>
</g>
<g id="layer105" fill="#75828c" stroke="none">
<path d="M2530 2266 l0 -114 57 -10 c94 -16 98 -7 60 118 -19 61 -30 79 -57 98 -57 39 -60 35 -60 -92z"/>
<path d="M2537 2113 c-10 -9 -9 -753 1 -753 4 0 13 9 19 19 7 10 46 35 88 55 53 25 78 43 85 61 18 48 29 142 20 181 -5 22 -11 66 -13 99 -5 59 -32 236 -43 282 -7 28 -25 38 -79 47 -22 4 -47 9 -56 12 -8 2 -18 1 -22 -3z"/>
<path d="M3160 1484 l0 -216 25 6 c49 12 72 25 103 56 l32 32 0 125 c0 118 -1 127 -23 147 -38 35 -81 60 -109 63 l-28 3 0 -216z"/>
<path d="M2725 1325 c-104 -37 -111 -158 -11 -207 56 -27 105 -19 153 25 96 88 -12 226 -142 182z"/>
</g>
<g id="layer106" fill="#a1c1d1" stroke="none">
<path d="M3280 1481 c0 -130 2 -150 15 -145 22 9 26 36 23 169 -3 105 -5 120 -20 123 -17 3 -18 -9 -18 -147z"/>
</g>


</svg>