<!DOCTYPE svg PUBLIC "-//W3C//DTD SVG 20010904//EN" "http://www.w3.org/TR/2001/REC-SVG-20010904/DTD/svg10.dtd">
<svg version="1.0" xmlns="http://www.w3.org/2000/svg" width="500px" height="500px" viewBox="0 0 5000 5000" preserveAspectRatio="xMidYMid meet">
<g id="layer101" fill="#0f2e47" stroke="none">
<path d="M2608 2581 c-27 -4 -53 -12 -59 -18 -8 -8 -11 -185 -10 -599 1 -498 -1 -597 -14 -638 -29 -96 -14 -407 21 -433 59 -43 303 16 444 108 80 51 188 163 225 231 15 29 48 72 72 96 l43 42 0 123 0 122 -36 30 c-69 57 -93 86 -120 143 -68 148 -102 210 -138 256 -37 47 -38 50 -33 111 4 51 14 81 55 156 97 181 93 216 -25 243 -56 12 -334 39 -368 35 -5 -1 -31 -5 -57 -8z m230 -359 c2 -7 -3 -12 -12 -12 -9 0 -16 7 -16 16 0 17 22 14 28 -4z m-121 -278 c18 -89 30 -195 24 -198 -3 -1 -39 0 -80 3 -75 6 -75 6 -83 39 -5 18 -8 61 -6 94 3 59 4 62 35 72 18 6 43 21 55 34 12 12 27 21 33 19 5 -2 15 -30 22 -63z"/>
</g>
<g id="layer102" fill="#1c6699" stroke="none">
<path d="M2608 2581 c-27 -4 -53 -12 -59 -18 -8 -8 -11 -185 -10 -599 1 -498 -1 -597 -14 -638 -29 -96 -14 -407 21 -433 59 -43 303 16 444 108 80 51 188 163 225 231 15 29 48 72 72 96 l43 42 0 121 0 122 -36 33 c-19 19 -39 34 -44 34 -5 0 -23 20 -39 44 -22 31 -36 43 -49 40 -40 -11 -71 15 -129 105 -63 97 -88 134 -77 112 4 -9 2 -12 -7 -9 -8 3 -20 25 -27 51 -8 30 -20 48 -32 52 -12 4 -20 15 -20 29 0 12 -13 35 -30 51 -33 32 -42 85 -14 85 8 0 50 -34 92 -75 l77 -74 7 64 c5 50 17 84 56 157 97 180 93 215 -25 242 -56 12 -334 39 -368 35 -5 -1 -31 -5 -57 -8z m109 -637 c18 -89 30 -195 24 -198 -3 -1 -39 0 -80 3 -75 6 -75 6 -83 39 -5 18 -8 61 -6 94 3 59 4 62 35 72 18 6 43 21 55 34 12 12 27 21 33 19 5 -2 15 -30 22 -63z m148 -586 c40 -20 76 -63 86 -102 21 -79 -37 -164 -128 -184 -51 -12 -116 -1 -152 25 -40 30 -75 106 -66 149 8 46 59 101 110 119 42 16 113 12 150 -7z"/>
</g>
<g id="layer103" fill="#2695b8" stroke="none">
<path d="M2730 1410 c-66 -12 -129 -59 -159 -117 -15 -30 -14 -107 3 -146 17 -41 74 -91 121 -107 21 -7 67 -10 105 -8 57 3 77 9 112 33 91 63 114 184 52 263 -51 63 -151 99 -234 82z m135 -52 c40 -20 76 -63 86 -102 9 -32 7 -47 -7 -85 -10 -25 -18 -50 -19 -56 0 -5 -4 -10 -10 -10 -5 0 -28 -9 -49 -19 -48 -23 -132 -24 -174 -2 -64 33 -103 117 -83 178 31 94 163 143 256 96z"/>
</g>
<g id="layer104" fill="#75838d" stroke="none">
<path d="M1731 3431 c-16 -16 -21 -34 -21 -72 0 -70 24 -61 28 10 3 56 17 70 51 51 17 -9 21 -20 21 -60 0 -28 4 -50 9 -50 10 0 22 112 12 122 -3 3 -22 9 -43 13 -29 6 -40 3 -57 -14z"/>
<path d="M3372 3427 c-44 -47 -16 -117 47 -119 41 -1 71 30 71 73 0 62 -75 91 -118 46z m83 -17 c15 -16 17 -26 9 -48 -8 -22 -15 -27 -44 -27 -29 0 -36 5 -44 27 -8 22 -6 32 9 48 10 11 26 20 35 20 9 0 25 -9 35 -20z"/>
<path d="M2540 2370 c-1 -11 -1 -69 -1 -130 0 -60 0 -284 1 -497 l0 -387 33 32 c17 17 57 42 87 55 80 36 92 53 98 141 2 41 2 94 -2 118 l-7 44 -77 3 c-42 1 -81 7 -87 12 -5 5 -10 48 -10 96 l0 86 30 10 c17 5 41 20 55 32 14 12 32 25 40 28 13 5 12 6 -1 6 -13 1 -15 8 -10 34 8 36 9 37 113 6 43 -12 69 -26 72 -37 3 -9 17 -79 31 -154 14 -75 30 -147 36 -160 6 -13 60 -59 120 -103 l109 -79 0 -129 c0 -119 1 -129 18 -122 9 4 27 10 40 13 13 2 41 22 62 44 l40 39 0 120 0 121 -30 30 c-30 29 -123 71 -134 60 -3 -3 -6 -30 -6 -59 l0 -54 -87 61 c-48 33 -91 67 -95 73 -4 7 -19 80 -33 162 -20 114 -32 155 -48 173 -20 21 -105 53 -179 67 l-34 7 -20 96 c-19 93 -21 98 -63 129 -49 38 -61 41 -61 13z"/>
<path d="M2733 1329 c-69 -20 -106 -111 -67 -167 51 -73 190 -68 229 8 34 66 0 139 -73 160 -42 11 -46 11 -89 -1z"/>
</g>
<g id="layer105" fill="#9bb5cc" stroke="none">
<path d="M2536 2141 c-11 -18 50 -44 118 -51 96 -10 213 -46 220 -68 3 -9 17 -79 31 -154 14 -75 30 -147 36 -160 9 -20 181 -152 215 -165 9 -3 14 2 14 15 0 14 -29 41 -95 88 -52 37 -97 74 -99 81 -3 7 -17 80 -31 161 -23 132 -29 150 -54 173 -49 45 -337 110 -355 80z"/>
</g>
<g id="layer106" fill="#cacdd0" stroke="none">
<path d="M1487 3439 c-9 -5 -24 -24 -33 -41 -34 -65 11 -138 85 -138 39 0 85 25 76 41 -4 5 -15 3 -28 -6 -52 -36 -117 -4 -117 59 0 61 68 95 118 60 32 -22 43 -7 13 17 -25 21 -85 25 -114 8z"/>
<path d="M1660 3355 c0 -57 4 -95 10 -95 6 0 10 38 10 95 0 57 -4 95 -10 95 -6 0 -10 -38 -10 -95z"/>
<path d="M1730 3430 c-15 -15 -20 -33 -20 -71 0 -70 24 -61 28 10 3 56 17 70 51 51 17 -9 21 -20 21 -60 0 -62 19 -66 22 -5 1 25 2 53 2 63 1 10 -6 17 -16 17 -9 0 -20 4 -24 8 -14 13 -44 7 -64 -13z"/>
<path d="M1880 3355 c0 -57 4 -95 10 -95 6 0 10 13 10 29 0 28 1 28 44 24 37 -5 46 -2 60 18 9 13 16 35 16 49 0 51 -75 91 -108 58 -9 -9 -12 -9 -12 0 0 7 -4 12 -10 12 -6 0 -10 -38 -10 -95z m102 58 c36 -32 17 -83 -32 -83 -48 0 -67 45 -33 82 20 22 41 23 65 1z"/>
<path d="M2049 3433 c-13 -15 -11 -16 14 -9 39 9 47 -18 13 -45 -14 -11 -26 -29 -26 -39 0 -23 32 -42 54 -34 23 9 20 27 -4 21 -33 -9 -34 13 -1 43 22 20 29 34 24 47 -13 36 -51 44 -74 16z"/>
<path d="M2220 3441 c0 -4 19 -50 43 -101 l43 -93 42 94 c23 52 42 97 42 102 0 18 -19 4 -30 -23 -11 -27 -17 -30 -55 -30 -39 0 -44 3 -54 30 -9 27 -31 42 -31 21z m103 -101 c-8 -31 -19 -32 -31 -5 -11 23 -9 25 12 25 19 0 23 -4 19 -20z"/>
<path d="M2417 3443 c-15 -14 -6 -25 17 -19 39 10 43 -14 6 -44 -25 -20 -31 -31 -26 -47 9 -27 32 -36 57 -22 26 13 16 28 -16 21 -34 -6 -32 9 5 36 31 24 38 50 18 70 -13 13 -50 16 -61 5z"/>
<path d="M2527 3443 c-15 -14 -6 -23 17 -17 37 9 41 -21 6 -46 -17 -12 -30 -30 -30 -40 0 -27 34 -44 60 -30 27 14 17 29 -15 22 -34 -6 -32 8 7 39 29 25 31 29 20 53 -11 25 -49 36 -65 19z"/>
<path d="M2645 3425 c-67 -66 27 -160 98 -98 23 22 22 78 -3 103 -27 27 -66 25 -95 -5z m79 -11 c19 -18 21 -55 4 -72 -20 -20 -56 -14 -74 13 -15 23 -15 27 0 50 19 29 47 32 70 9z"/>
<path d="M2815 3425 c-14 -13 -25 -34 -25 -45 0 -27 52 -80 78 -80 24 0 70 35 59 46 -4 4 -13 2 -19 -4 -15 -15 -61 -15 -76 0 -15 15 -15 61 0 76 15 15 61 15 76 0 6 -6 15 -8 19 -4 12 12 -28 36 -59 36 -17 0 -39 -10 -53 -25z"/>
<path d="M2970 3380 c0 -40 4 -70 10 -70 6 0 10 30 10 70 0 40 -4 70 -10 70 -6 0 -10 -30 -10 -70z"/>
<path d="M3042 3427 c-45 -48 -16 -119 48 -117 19 0 43 1 53 1 14 0 17 10 17 71 0 59 -2 69 -14 59 -10 -8 -16 -9 -21 -1 -11 18 -61 11 -83 -13z m82 -13 c20 -19 21 -58 2 -73 -25 -21 -69 -9 -80 21 -17 50 42 89 78 52z"/>
<path d="M3227 3443 c-4 -3 -7 -30 -7 -59 0 -32 -5 -55 -12 -58 -10 -5 -10 -7 0 -12 6 -3 12 -17 12 -30 0 -13 5 -24 10 -24 6 0 10 11 10 25 0 16 6 25 15 25 8 0 15 5 15 10 0 6 -7 10 -15 10 -11 0 -15 12 -15 50 0 28 5 50 10 50 6 0 10 5 10 10 0 11 -23 14 -33 3z"/>
<path d="M3300 3380 c0 -40 4 -70 10 -70 6 0 10 30 10 70 0 40 -4 70 -10 70 -6 0 -10 -30 -10 -70z"/>
<path d="M3372 3427 c-44 -47 -16 -117 47 -119 24 -1 40 5 53 22 57 71 -38 163 -100 97z m83 -17 c15 -16 17 -26 9 -48 -8 -22 -15 -27 -44 -27 -29 0 -36 5 -44 27 -8 22 -6 32 9 48 10 11 26 20 35 20 9 0 25 -9 35 -20z"/>
<path d="M3530 3382 l0 -69 44 -1 c36 -2 48 2 60 20 18 25 22 103 6 113 -6 4 -10 -8 -10 -29 0 -49 -16 -86 -38 -86 -30 0 -42 21 -42 72 0 26 -4 48 -10 48 -6 0 -10 -29 -10 -68z"/>
<path d="M2967 3284 c-8 -8 1 -24 14 -24 5 0 9 7 9 15 0 15 -12 20 -23 9z"/>
<path d="M3297 3283 c-12 -11 -8 -23 8 -23 8 0 15 7 15 15 0 16 -12 20 -23 8z"/>
<path d="M2130 3146 c0 -9 7 -16 15 -16 12 0 15 -19 15 -112 0 -77 3 -109 10 -102 7 7 10 56 8 125 -3 110 -4 114 -25 117 -16 2 -23 -2 -23 -12z"/>
<path d="M1294 3100 c-60 -24 -73 -112 -25 -161 53 -52 140 -28 157 44 l6 27 -81 0 c-74 0 -81 2 -81 19 0 24 36 51 66 51 12 0 33 -9 47 -20 30 -24 37 -25 37 -5 0 19 -57 55 -85 54 -11 0 -30 -4 -41 -9z m100 -125 c-14 -36 -75 -46 -106 -18 -30 27 -21 33 47 33 54 0 63 -3 59 -15z"/>
<path d="M1643 3095 c-13 -9 -23 -11 -23 -6 0 6 -7 11 -15 11 -13 0 -15 -19 -13 -127 2 -77 7 -128 13 -128 6 0 11 21 13 48 3 46 4 47 25 32 57 -40 137 8 137 84 0 75 -82 126 -137 86z m88 -33 c47 -39 17 -122 -44 -122 -41 0 -67 26 -67 67 0 63 62 94 111 55z"/>
<path d="M1859 3081 c-23 -23 -29 -38 -29 -71 0 -76 79 -126 137 -85 19 13 22 13 27 -1 14 -36 26 4 26 87 0 72 -3 89 -15 89 -8 0 -15 -5 -15 -11 0 -5 -10 -3 -22 5 -35 25 -76 20 -109 -13z m111 -21 c43 -43 11 -120 -49 -120 -32 0 -71 39 -71 70 0 10 9 29 21 44 25 32 70 35 99 6z"/>
<path d="M2285 3098 c-82 -45 -69 -167 20 -184 24 -4 43 -1 59 10 22 14 25 14 30 0 14 -36 26 4 26 87 0 72 -3 89 -15 89 -8 0 -15 -5 -15 -11 0 -5 -10 -3 -22 5 -26 19 -55 20 -83 4z m90 -38 c40 -44 10 -120 -47 -120 -37 0 -68 32 -68 70 0 61 76 93 115 50z"/>
<path d="M3064 3100 c-60 -24 -73 -112 -25 -161 77 -77 195 15 149 116 -20 45 -76 65 -124 45z m86 -40 c43 -43 11 -120 -48 -120 -36 0 -65 31 -65 70 0 62 70 93 113 50z"/>
<path d="M3308 3096 c-16 -8 -28 -11 -28 -5 0 5 -7 9 -15 9 -13 0 -15 -19 -13 -127 2 -77 7 -128 13 -128 6 0 11 21 13 48 3 46 4 47 25 32 33 -23 73 -18 109 14 28 25 33 36 32 71 -2 73 -75 119 -136 86z m95 -48 c35 -47 3 -108 -58 -108 -39 0 -65 29 -65 72 0 66 83 90 123 36z"/>
<path d="M3518 3081 c-27 -24 -33 -36 -33 -71 0 -35 6 -47 33 -71 20 -18 43 -29 62 -29 19 0 42 11 62 29 27 24 33 36 33 71 0 35 -6 47 -33 71 -20 18 -43 29 -62 29 -19 0 -42 -11 -62 -29z m111 -27 c27 -34 26 -54 0 -88 -28 -35 -73 -33 -102 6 -52 70 48 151 102 82z"/>
<path d="M3757 3103 c-4 -3 -7 -42 -7 -85 0 -63 -3 -78 -15 -78 -8 0 -15 -7 -15 -15 0 -8 7 -15 15 -15 11 0 15 -11 15 -36 0 -45 24 -42 28 4 2 20 9 32 18 32 8 0 14 7 14 15 0 8 -7 15 -15 15 -22 0 -22 135 1 144 8 3 12 10 9 16 -7 11 -38 13 -48 3z"/>
<path d="M3978 3094 c-15 -8 -32 -23 -38 -34 -13 -24 -13 -76 0 -101 14 -25 62 -49 98 -49 36 0 88 38 73 53 -7 7 -16 5 -29 -6 -44 -40 -122 -7 -122 53 0 60 67 90 119 54 16 -11 26 -13 33 -6 8 8 0 17 -23 31 -40 24 -73 26 -111 5z"/>
<path d="M4166 3095 c-26 -20 -12 -37 19 -23 19 8 28 8 40 -2 23 -19 19 -27 -25 -55 -44 -28 -53 -61 -24 -89 18 -19 38 -20 65 -6 32 17 22 32 -16 24 -31 -5 -35 -4 -35 14 0 12 13 28 35 41 27 16 35 27 35 49 0 52 -53 78 -94 47z"/>
<path d="M812 3091 c35 -89 113 -250 119 -244 4 4 32 63 63 131 44 99 51 122 38 122 -10 0 -24 -16 -34 -40 -16 -40 -17 -40 -71 -40 -55 0 -55 0 -71 40 -9 23 -23 40 -32 40 -9 0 -14 -4 -12 -9z m148 -111 c0 -14 -30 -73 -35 -68 -1 1 -10 20 -18 41 l-16 37 35 0 c18 0 34 -5 34 -10z"/>
<path d="M1070 3095 c0 -3 20 -38 45 -77 l45 -73 -42 -5 c-66 -8 -51 -25 25 -28 37 -2 67 1 67 5 -1 4 -23 42 -50 83 l-49 75 49 3 c76 5 60 22 -20 22 -38 0 -70 -2 -70 -5z"/>
<path d="M1470 3009 c0 -80 2 -90 18 -88 9 1 25 -1 35 -6 11 -4 23 -3 29 3 8 8 4 14 -14 21 -32 12 -38 28 -38 102 0 46 -3 59 -15 59 -12 0 -15 -17 -15 -91z"/>
<path d="M2080 3010 c0 -53 4 -90 10 -90 6 0 10 37 10 90 0 53 -4 90 -10 90 -6 0 -10 -37 -10 -90z"/>
<path d="M2480 3010 c0 -73 3 -90 15 -90 8 0 15 4 15 9 0 5 14 3 31 -6 44 -22 85 -3 99 46 16 57 13 131 -5 131 -12 0 -15 -13 -15 -61 0 -73 -12 -99 -45 -99 -44 0 -65 32 -65 100 0 47 -3 60 -15 60 -12 0 -15 -17 -15 -90z"/>
<path d="M2802 2978 l3 -123 58 1 c67 2 97 22 97 65 0 29 -39 69 -67 69 -10 0 -4 14 18 43 18 23 37 48 42 55 7 8 4 12 -9 12 -11 -1 -36 -24 -59 -55 -22 -30 -43 -55 -47 -55 -5 0 -8 25 -8 55 0 43 -3 55 -15 55 -13 0 -15 -18 -13 -122z m116 -30 c32 -32 1 -68 -57 -68 -29 0 -31 2 -31 40 0 40 0 40 38 40 21 0 43 -5 50 -12z"/>
<path d="M3850 3010 c0 -73 3 -90 15 -90 12 0 15 17 15 90 0 73 -3 90 -15 90 -12 0 -15 -17 -15 -90z"/>
<path d="M2077 2884 c-14 -15 -6 -34 14 -34 14 0 19 5 17 17 -3 18 -20 27 -31 17z"/>
<path d="M2157 2884 c-14 -15 -6 -34 14 -34 14 0 19 5 17 17 -3 18 -20 27 -31 17z"/>
<path d="M3845 2880 c-10 -16 16 -43 28 -31 11 11 2 41 -12 41 -5 0 -13 -5 -16 -10z"/>
<path d="M2338 2473 c-74 -134 -77 -135 -254 -127 -205 10 -238 -5 -235 -103 1 -40 -4 -65 -19 -90 -11 -19 -20 -46 -20 -61 0 -16 -9 -35 -21 -46 -17 -14 -20 -26 -16 -55 6 -46 -7 -71 -36 -71 -30 0 -67 -27 -67 -48 0 -9 27 -65 60 -124 66 -118 72 -146 39 -209 -54 -107 -21 -280 79 -411 102 -134 322 -245 498 -251 45 -2 58 2 70 17 12 17 14 145 14 829 0 784 -2 847 -30 847 -5 0 -33 -43 -62 -97z"/>
<path d="M2536 2141 c-11 -18 50 -44 118 -51 96 -10 213 -46 220 -68 3 -9 17 -79 31 -154 14 -75 30 -147 35 -160 6 -13 56 -55 112 -93 119 -82 118 -82 118 -58 0 11 -35 44 -95 88 -52 38 -97 75 -99 82 -3 7 -17 80 -31 161 -23 132 -29 150 -54 173 -49 45 -337 110 -355 80z"/>
<path d="M3290 1491 c0 -119 2 -141 15 -141 13 0 15 21 15 130 0 72 0 133 1 138 0 4 -7 8 -15 10 -14 3 -16 -15 -16 -137z"/>
</g>


</svg>