<!DOCTYPE svg PUBLIC "-//W3C//DTD SVG 20010904//EN" "http://www.w3.org/TR/2001/REC-SVG-20010904/DTD/svg10.dtd">
<svg version="1.0" xmlns="http://www.w3.org/2000/svg" width="179px" height="184px" viewBox="0 0 1790 1840" preserveAspectRatio="xMidYMid meet">
<g id="layer101" fill="#0f2b43" stroke="none">
<path d="M925 1748 c-11 -6 -22 -13 -25 -15 -3 -3 -7 -280 -10 -616 -4 -448 -9 -636 -20 -702 -11 -77 -11 -110 0 -214 17 -159 23 -166 123 -157 104 10 180 32 287 84 80 39 109 60 186 137 50 50 101 110 113 133 12 24 42 64 66 90 l45 47 0 125 0 124 -68 66 c-55 53 -74 80 -96 136 -34 85 -90 187 -128 234 -24 30 -28 43 -28 97 0 58 5 73 60 178 103 198 87 223 -160 255 -103 13 -320 12 -345 -2z m312 -1304 c7 -10 13 -35 13 -55 0 -29 -7 -43 -31 -63 -55 -46 -103 -46 -158 0 -33 28 -41 67 -18 97 32 45 166 59 194 21z"/>
</g>
<g id="layer102" fill="#4f5e6e" stroke="none">
<path d="M925 1748 c-11 -6 -22 -13 -25 -15 -3 -3 -7 -280 -10 -616 -4 -448 -9 -636 -20 -702 -11 -77 -11 -110 0 -214 17 -159 23 -166 123 -157 198 18 370 104 507 253 34 37 73 88 86 113 12 25 41 63 64 84 l40 40 0 127 0 128 -53 46 c-30 25 -64 63 -78 85 -24 39 -47 55 -35 24 5 -13 1 -14 -27 -9 -17 4 -35 9 -39 11 -3 2 -51 75 -105 161 -54 85 -114 174 -134 197 l-36 41 23 18 c23 17 24 17 89 -44 36 -34 65 -57 66 -53 1 5 3 33 5 62 3 40 18 79 64 167 103 198 87 223 -160 255 -103 13 -320 12 -345 -2z m326 -1239 c60 -42 78 -131 39 -195 -60 -96 -242 -97 -300 -1 -24 38 -26 106 -5 147 43 83 182 109 266 49z"/>
<path d="M1084 496 c-46 -20 -74 -62 -74 -109 0 -32 6 -46 34 -72 46 -43 93 -52 150 -26 101 44 100 165 0 207 -41 17 -70 17 -110 0z m153 -52 c23 -32 16 -87 -14 -116 -51 -48 -107 -49 -162 -2 -33 28 -41 67 -18 97 32 45 166 59 194 21z"/>
</g>
<g id="layer103" fill="#1b6598" stroke="none">
<path d="M925 1748 c-11 -6 -23 -16 -27 -22 -4 -6 -8 -279 -8 -606 0 -394 -4 -607 -11 -630 -16 -53 -19 -224 -5 -329 16 -118 23 -125 121 -117 195 18 368 104 505 253 63 69 105 136 95 153 -3 5 4 11 15 15 11 4 34 21 50 38 l30 32 0 127 0 126 -47 42 c-30 26 -54 39 -65 37 -14 -4 -16 -2 -9 10 5 11 1 27 -13 49 -22 34 -43 46 -32 18 5 -13 1 -14 -27 -9 -17 4 -35 9 -39 11 -3 2 -51 75 -105 161 -54 85 -116 176 -137 200 -39 44 -39 45 -19 64 19 20 20 20 91 -46 40 -37 72 -63 73 -58 1 4 3 32 5 61 3 40 18 79 64 167 103 198 87 223 -160 255 -104 13 -320 12 -345 -2z m326 -1239 c60 -42 78 -131 39 -195 -60 -96 -242 -97 -300 -1 -24 38 -26 106 -5 147 43 83 182 109 266 49z"/>
</g>
<g id="layer104" fill="#2695b8" stroke="none">
<path d="M890 1046 c0 -325 4 -516 10 -516 5 0 14 9 20 20 6 10 48 37 95 59 80 39 85 42 96 83 16 60 5 242 -26 408 -14 74 -25 140 -25 146 0 14 160 -31 171 -48 4 -6 10 -32 14 -57 7 -52 43 -237 51 -263 3 -9 57 -54 120 -98 l114 -82 0 -129 c0 -71 1 -129 3 -129 23 0 112 45 131 66 24 28 25 35 26 156 l0 126 -45 40 c-25 22 -55 40 -68 39 -12 0 -29 2 -37 4 -12 3 -16 -9 -20 -54 l-5 -58 -80 59 c-44 32 -85 65 -91 73 -7 8 -23 80 -37 161 -15 81 -31 156 -36 167 -12 21 -94 56 -176 75 l-50 11 -21 95 c-18 84 -24 97 -55 121 -19 15 -44 30 -56 34 l-23 6 0 -515z"/>
<path d="M1090 580 c-66 -12 -129 -59 -159 -117 -15 -30 -14 -107 3 -146 17 -41 74 -91 121 -107 21 -7 67 -10 105 -8 57 3 77 9 112 33 91 63 114 184 52 263 -51 63 -151 99 -234 82z m155 -60 c42 -26 75 -85 75 -133 0 -41 -33 -93 -79 -124 -119 -80 -293 9 -278 143 10 90 89 149 189 141 35 -3 72 -14 93 -27z"/>
</g>
<g id="layer105" fill="#79868f" stroke="none">
<path d="M736 1718 c-8 -13 -31 -54 -52 -92 -61 -109 -67 -111 -248 -108 -211 5 -249 -13 -233 -111 3 -22 -3 -49 -19 -85 -14 -29 -22 -57 -18 -63 3 -6 -3 -20 -14 -32 -14 -15 -22 -39 -24 -72 -3 -48 -4 -50 -46 -65 -72 -25 -72 -36 -3 -160 34 -60 64 -122 67 -137 4 -19 -3 -47 -20 -83 -64 -137 -6 -343 133 -474 116 -107 272 -178 427 -192 115 -10 104 -100 104 846 0 450 -3 825 -6 834 -9 23 -31 20 -48 -6z"/>
<path d="M890 1046 c0 -325 4 -516 10 -516 5 0 14 9 20 20 6 10 48 37 95 59 80 39 85 42 96 83 16 60 5 242 -26 408 -14 74 -25 140 -25 146 0 14 160 -31 171 -48 4 -6 10 -32 14 -57 7 -52 43 -237 51 -263 3 -9 57 -54 120 -98 l114 -82 0 -129 c0 -71 1 -129 3 -129 23 0 112 45 131 66 24 28 25 35 26 156 l0 126 -45 40 c-25 22 -55 40 -68 39 -12 0 -29 2 -37 4 -12 3 -16 -9 -20 -54 l-5 -58 -80 59 c-44 32 -85 65 -91 73 -7 8 -22 73 -34 144 -36 213 -29 205 -182 249 l-83 24 -21 93 c-18 83 -24 96 -55 120 -19 15 -44 30 -56 34 l-23 6 0 -515z"/>
<path d="M1165 1399 c-10 -30 11 -48 32 -27 13 14 14 20 3 32 -17 22 -27 20 -35 -5z"/>
<path d="M1068 484 c-33 -17 -48 -43 -48 -81 l1 -28 13 31 c17 39 64 59 139 59 62 -1 71 6 32 23 -35 16 -104 14 -137 -4z"/>
<path d="M1040 325 c0 -13 68 -45 95 -44 l30 1 -30 7 c-16 4 -45 15 -62 25 -18 9 -33 14 -33 11z"/>
</g>
<g id="layer106" fill="#9eb6c9" stroke="none">
<path d="M732 1710 c-115 -205 -101 -196 -293 -192 -157 4 -211 -5 -229 -38 -5 -10 -9 -46 -8 -79 1 -46 -3 -65 -16 -80 -10 -11 -19 -33 -20 -50 -1 -16 -9 -38 -19 -48 -11 -13 -17 -36 -17 -70 l0 -51 -43 -10 c-24 -7 -48 -20 -55 -33 -12 -19 -7 -32 47 -130 34 -59 64 -121 67 -136 4 -19 -3 -47 -20 -83 -64 -137 -6 -343 133 -474 116 -107 272 -178 427 -192 115 -10 104 -100 104 850 0 824 -1 846 -32 846 -5 0 -17 -14 -26 -30z"/>
<path d="M1166 1403 c-8 -19 1 -33 20 -33 18 0 18 36 0 43 -8 3 -17 -1 -20 -10z"/>
<path d="M890 1302 c0 -22 7 -30 40 -45 22 -9 53 -17 69 -17 18 0 31 -6 35 -17 10 -26 -26 -67 -61 -71 -54 -5 -80 -50 -75 -130 1 -13 6 -21 11 -18 5 3 11 -12 15 -34 7 -48 47 -73 106 -69 26 2 43 -3 56 -16 19 -18 19 -18 22 12 2 17 -7 89 -19 159 -27 160 -33 204 -26 204 4 0 16 -4 29 -9 13 -5 49 -17 80 -26 67 -19 63 -11 98 -210 12 -72 28 -130 39 -145 21 -29 200 -160 218 -160 43 0 -10 52 -145 144 -45 31 -52 47 -71 161 -27 159 -35 191 -53 211 -30 33 -143 66 -335 98 -31 5 -33 3 -33 -22z"/>
<path d="M1650 656 c0 -80 4 -146 9 -146 25 0 32 33 29 156 -3 113 -5 129 -20 132 -17 3 -18 -9 -18 -142z"/>
<path d="M1061 660 c-13 -11 -29 -20 -36 -20 -7 0 -18 -7 -25 -15 -10 -12 -9 -15 7 -15 23 0 85 39 91 58 5 18 -9 14 -37 -8z"/>
</g>
<g id="layer107" fill="#c1c5c8" stroke="none">
<path d="M732 1710 c-115 -205 -101 -196 -293 -192 -157 4 -211 -5 -229 -38 -5 -10 -9 -46 -8 -79 1 -46 -3 -65 -16 -80 -10 -11 -19 -33 -20 -50 -1 -16 -9 -38 -19 -48 -11 -13 -17 -36 -17 -70 l0 -51 -43 -10 c-23 -6 -48 -20 -55 -32 -11 -18 -8 -29 24 -88 110 -200 106 -185 69 -264 -63 -135 -4 -342 134 -472 116 -107 272 -178 427 -192 115 -11 104 -100 104 849 0 581 -4 824 -11 834 -17 20 -28 16 -47 -17z"/>
<path d="M1170 1391 c0 -12 6 -21 16 -21 9 0 14 7 12 17 -5 25 -28 28 -28 4z"/>
<path d="M890 1300 c0 -28 11 -36 43 -31 5 1 6 -3 2 -8 -9 -16 65 -25 99 -13 25 10 44 8 106 -9 41 -11 80 -26 87 -32 6 -7 23 -77 38 -157 14 -80 32 -156 38 -170 12 -25 203 -169 225 -170 34 0 2 36 -88 100 -55 40 -102 75 -105 80 -2 4 -17 76 -32 161 -21 121 -32 159 -49 176 -25 25 -153 67 -251 83 -37 6 -78 13 -90 16 -20 4 -23 0 -23 -26z"/>
<path d="M1039 1198 c-26 -38 -40 -48 -68 -48 -35 0 -69 -35 -72 -75 -3 -48 0 -77 10 -71 5 3 11 -12 15 -34 8 -50 46 -73 115 -68 31 2 45 -1 44 -9 -1 -6 4 -14 12 -17 12 -4 13 7 10 62 -4 61 -40 271 -48 278 -2 2 -10 -6 -18 -18z"/>
<path d="M1650 651 c0 -87 4 -141 10 -141 5 0 9 3 8 8 0 4 2 14 6 23 12 28 2 242 -11 247 -10 3 -13 -29 -13 -137z"/>
<path d="M1074 665 c-5 -13 -41 -31 -56 -27 -3 1 -12 -5 -18 -13 -19 -23 11 -19 54 5 34 21 55 50 35 50 -5 0 -12 -7 -15 -15z"/>
</g>
<g id="layer108" fill="#f6f8fa" stroke="none">
<path d="M905 1310 c-3 -5 4 -12 17 -15 13 -2 55 -12 93 -20 89 -20 208 -55 217 -64 5 -4 22 -79 39 -166 17 -88 33 -165 37 -171 6 -11 117 -94 185 -139 22 -14 27 -15 27 -3 0 8 -40 43 -90 79 -49 35 -94 75 -100 89 -5 14 -21 88 -34 164 -18 99 -30 145 -43 158 -25 25 -141 64 -228 78 -38 5 -80 12 -92 15 -12 3 -24 1 -28 -5z"/>
<path d="M1022 1155 c-18 -15 -44 -30 -59 -34 -26 -7 -28 -11 -31 -69 -2 -33 1 -76 6 -94 8 -33 8 -33 81 -38 57 -4 75 -2 79 9 6 16 -25 217 -37 238 -6 12 -14 9 -39 -12z"/>
</g>


</svg>