<!DOCTYPE svg PUBLIC "-//W3C//DTD SVG 20010904//EN" "http://www.w3.org/TR/2001/REC-SVG-20010904/DTD/svg10.dtd">
<svg version="1.0" xmlns="http://www.w3.org/2000/svg" width="418px" height="411px" viewBox="0 0 4180 4110" preserveAspectRatio="xMidYMid meet">
<g id="layer101" fill="#0b2f49" stroke="none">
<path d="M2269 3840 c-86 -7 -140 -27 -156 -59 -12 -26 -16 -881 -4 -881 6 0 11 -7 11 -15 0 -8 -4 -15 -10 -15 -7 0 -10 -286 -10 -837 0 -727 -2 -844 -16 -882 -25 -72 -44 -228 -44 -358 0 -136 35 -513 51 -555 7 -17 28 -35 56 -49 40 -19 56 -21 142 -16 277 17 623 137 831 288 181 131 401 382 489 557 23 46 40 67 65 79 23 11 39 28 49 54 11 27 22 39 35 39 40 0 42 16 40 301 l-3 274 -37 18 c-23 11 -38 26 -38 36 0 23 -26 46 -75 65 -34 14 -51 33 -109 124 -38 59 -82 140 -98 180 -62 161 -184 381 -286 516 -60 79 -69 122 -52 244 15 115 32 164 91 267 74 129 143 272 164 334 30 92 7 158 -68 198 -74 38 -338 75 -657 93 -199 11 -229 11 -361 0z m448 -2695 c137 -41 217 -169 183 -295 -52 -195 -330 -259 -484 -112 -96 92 -102 227 -15 326 75 85 197 116 316 81z"/>
<path d="M1725 3738 c-175 -315 -203 -352 -286 -377 -49 -15 -167 -15 -391 -1 -232 15 -368 -8 -423 -70 -18 -20 -20 -34 -17 -154 l3 -132 -46 -69 c-45 -68 -46 -72 -40 -126 6 -56 5 -57 -29 -78 -19 -12 -37 -28 -40 -37 -3 -9 -6 -60 -6 -114 0 -110 -7 -124 -62 -135 -109 -22 -168 -60 -168 -108 0 -11 54 -119 121 -239 67 -120 128 -240 136 -266 19 -62 11 -108 -37 -204 -52 -105 -64 -168 -57 -303 13 -251 122 -496 304 -681 151 -153 367 -290 574 -362 122 -43 309 -83 414 -89 109 -5 147 11 164 74 16 58 14 3486 -2 3533 -8 23 -19 36 -34 38 -18 3 -31 -14 -78 -100z"/>
</g>
<g id="layer102" fill="#1b6698" stroke="none">
<path d="M2269 3840 c-87 -7 -141 -28 -155 -59 -12 -29 -17 -881 -5 -881 6 0 11 -7 11 -15 0 -8 -4 -15 -10 -15 -7 0 -10 -286 -10 -837 0 -727 -2 -844 -16 -882 -25 -72 -44 -228 -44 -358 0 -136 35 -513 51 -555 7 -17 28 -35 56 -49 40 -19 56 -21 142 -16 154 9 479 88 526 127 6 5 15 7 18 3 4 -3 7 -1 7 6 0 7 4 10 9 6 5 -3 16 2 25 11 9 8 20 12 26 9 5 -3 10 -1 10 5 0 6 5 8 10 5 6 -3 10 -1 10 5 0 6 5 8 10 5 6 -3 10 -1 10 5 0 6 4 9 9 5 5 -3 16 1 23 9 8 7 24 17 36 20 12 4 22 12 22 17 0 6 5 7 10 4 6 -3 10 -2 10 4 0 6 16 18 35 27 19 9 33 20 30 24 -5 7 20 22 29 17 2 -1 14 10 26 26 12 15 27 27 33 27 12 0 87 72 87 83 0 4 25 33 57 64 31 32 53 52 48 44 -5 -10 -4 -12 4 -7 6 4 9 11 6 16 -3 5 8 18 25 30 16 12 30 30 30 41 0 10 7 19 15 19 9 0 12 6 9 15 -4 9 0 15 10 15 9 0 16 6 16 14 0 8 4 16 8 18 4 2 19 18 32 37 13 20 18 31 9 27 -11 -6 -11 -5 1 6 8 7 16 19 18 27 1 7 9 20 17 28 9 8 13 19 10 24 -4 5 -1 9 5 9 6 0 9 4 6 9 -3 5 14 19 39 32 32 17 48 34 59 61 10 26 21 38 34 38 40 0 42 16 40 301 l-3 274 -37 18 c-23 11 -38 26 -38 36 0 24 -26 46 -77 66 -24 10 -43 21 -43 26 0 5 -6 8 -12 7 -7 -2 -13 4 -13 12 0 8 -8 21 -17 28 -10 7 -18 19 -18 25 0 7 -16 29 -35 49 -31 32 -44 38 -110 49 -69 11 -78 15 -103 48 -32 41 -92 130 -92 136 0 2 -33 55 -73 117 -40 62 -90 141 -111 176 -38 63 -52 78 -41 42 5 -14 2 -20 -9 -20 -9 0 -16 -8 -17 -17 -1 -10 -7 10 -15 44 -7 35 -20 74 -29 87 -10 15 -12 25 -5 28 12 4 -36 78 -51 78 -6 0 -8 4 -5 8 3 5 -33 52 -79 105 -46 54 -87 106 -90 117 -8 27 3 76 20 90 18 15 43 -3 151 -107 181 -175 223 -213 238 -213 9 0 16 5 16 11 0 5 -5 7 -11 3 -8 -5 -9 8 -5 42 3 27 8 65 10 84 1 19 6 43 11 53 4 10 5 21 1 24 -3 3 -1 12 6 20 6 7 8 16 6 19 -7 6 40 106 94 198 57 97 122 232 143 295 30 92 7 158 -68 198 -74 38 -338 75 -657 93 -199 11 -229 11 -361 0z m539 -1061 c-20 -13 -28 -11 -22 5 3 8 12 12 21 9 12 -5 12 -7 1 -14z m-40 -88 c11 -7 10 -9 -3 -14 -9 -4 -13 -3 -10 2 3 5 -3 12 -12 14 -13 3 -14 5 -3 6 8 0 21 -3 28 -8z m71 -79 c0 -11 -4 -9 -10 8 -6 13 -15 32 -22 40 -7 9 -2 5 11 -8 12 -13 22 -31 21 -40z m-37 -1409 c81 -38 142 -97 175 -170 22 -47 24 -65 21 -136 -2 -52 -10 -96 -22 -119 -64 -132 -225 -218 -385 -205 -196 15 -338 153 -344 335 -2 62 2 77 33 138 26 51 49 79 90 111 85 66 145 84 265 80 88 -2 108 -6 167 -34z"/>
</g>
<g id="layer103" fill="#2b94b9" stroke="none">
<path d="M2106 3414 c-11 -28 -7 -514 4 -514 6 0 10 -7 10 -15 0 -8 -4 -15 -10 -15 -7 0 -10 -283 -10 -830 0 -456 4 -830 8 -830 4 0 28 21 52 46 53 53 115 91 223 133 134 53 156 77 188 198 17 64 20 100 16 203 -4 131 -34 378 -67 565 -42 234 -61 331 -72 366 -20 69 -16 69 195 8 153 -44 171 -52 186 -85 5 -13 28 -129 51 -258 44 -259 74 -396 96 -437 7 -15 28 -39 46 -54 31 -26 334 -245 404 -293 l34 -22 0 -280 c0 -225 3 -282 13 -286 8 -3 64 18 124 47 102 47 112 54 126 90 11 27 21 39 35 39 40 0 42 16 40 301 l-3 274 -37 18 c-24 12 -38 26 -38 37 0 18 -43 60 -61 60 -5 0 -42 15 -82 34 -128 59 -117 66 -117 -71 0 -145 -8 -161 -55 -120 -5 4 -83 60 -173 124 -99 70 -169 127 -178 144 -18 35 -41 147 -93 451 -41 243 -53 273 -112 303 -75 39 -229 87 -412 129 -15 4 -26 10 -23 14 3 4 -12 82 -33 172 -21 91 -41 181 -45 201 -9 53 -52 90 -165 144 -63 30 -57 29 -65 9z"/>
<path d="M2487 1315 c-178 -49 -323 -198 -342 -350 -15 -123 38 -270 128 -351 85 -77 235 -134 352 -134 180 0 364 109 437 258 31 63 33 73 33 172 0 94 -3 111 -28 161 -59 121 -164 204 -303 239 -89 23 -205 25 -277 5z m315 -112 c81 -38 142 -97 175 -170 22 -47 24 -65 21 -136 -2 -52 -10 -96 -22 -119 -64 -132 -225 -218 -385 -205 -196 15 -338 153 -344 335 -2 62 2 77 33 138 26 51 49 79 90 111 85 66 145 84 265 80 88 -2 108 -6 167 -34z"/>
</g>
<g id="layer104" fill="#74828c" stroke="none">
<path d="M2106 3414 c-11 -28 -7 -514 4 -514 6 0 10 -7 10 -15 0 -8 -4 -15 -10 -15 -7 0 -10 -283 -10 -830 0 -456 4 -830 8 -830 4 0 28 21 52 46 53 53 115 91 223 133 134 53 156 77 188 198 17 64 20 100 16 203 -4 131 -34 378 -67 565 -42 234 -61 331 -72 366 -20 69 -16 69 195 8 153 -44 171 -52 186 -85 5 -13 28 -129 51 -258 44 -259 74 -396 96 -437 7 -15 28 -39 46 -54 31 -26 334 -245 404 -293 l34 -22 0 -280 c0 -225 3 -282 13 -286 8 -3 64 18 124 47 102 47 112 54 126 90 11 27 21 39 35 39 40 0 42 16 40 301 l-3 274 -37 18 c-24 12 -38 26 -38 37 0 18 -43 60 -61 60 -5 0 -42 15 -82 34 -128 59 -117 66 -117 -71 0 -145 -8 -161 -55 -120 -5 4 -83 60 -173 124 -98 69 -169 127 -177 144 -19 35 -36 117 -81 379 -53 311 -51 306 -88 343 -47 49 -214 109 -449 161 -15 4 -26 10 -23 14 3 4 -12 82 -33 172 -21 91 -41 181 -45 201 -9 53 -52 90 -165 144 -63 30 -57 29 -65 9z"/>
</g>
<g id="layer105" fill="#a1bfd1" stroke="none">
<path d="M3718 1703 c-1 -49 -1 -178 0 -288 2 -110 2 -207 2 -216 0 -12 7 -15 28 -11 53 9 52 5 52 298 0 271 0 273 -22 288 -12 9 -30 16 -40 16 -16 0 -18 -11 -20 -87z"/>
</g>
<g id="layer106" fill="#eaf2f7" stroke="none">
<path d="M2127 2913 c-11 -10 -8 -51 3 -58 6 -4 84 -22 173 -40 168 -35 465 -117 497 -137 30 -19 37 -44 80 -292 44 -260 74 -396 96 -437 7 -15 33 -43 56 -62 59 -48 396 -287 414 -294 11 -4 14 4 14 36 0 54 -4 58 -218 210 -110 79 -178 134 -188 153 -17 33 -56 223 -99 488 -15 91 -34 179 -42 197 -19 42 -71 76 -171 112 -89 33 -249 76 -322 86 -25 4 -92 15 -150 26 -116 21 -133 22 -143 12z"/>
</g>


</svg>