<svg width="98" height="90" xmlns="http://www.w3.org/2000/svg" xmlns:xlink="http://www.w3.org/1999/xlink" overflow="hidden"><defs><clipPath id="clip0"><path d="M168 145 266 145 266 235 168 235Z" fill-rule="evenodd" clip-rule="evenodd"/></clipPath><clipPath id="clip1"><path d="M179 150 255 150 255 226 179 226Z" fill-rule="evenodd" clip-rule="evenodd"/></clipPath><clipPath id="clip2"><path d="M179 150 255 150 255 226 179 226Z" fill-rule="evenodd" clip-rule="evenodd"/></clipPath><clipPath id="clip3"><path d="M179 150 255 150 255 226 179 226Z" fill-rule="evenodd" clip-rule="evenodd"/></clipPath></defs><g clip-path="url(#clip0)" transform="translate(-168 -145)"><path d="M169 190C169 165.699 190.49 146 217 146 243.51 146 265 165.699 265 190 265 214.301 243.51 234 217 234 190.49 234 169 214.301 169 190Z" fill="#1F4E79" fill-rule="evenodd"/><g clip-path="url(#clip1)"><g clip-path="url(#clip2)"><g clip-path="url(#clip3)"><path d="M229.999 207 203.874 207C200.595 207 197.937 209.658 197.937 212.938 197.937 216.217 200.595 218.875 203.874 218.875L229.999 218.875C233.278 218.875 235.937 216.217 235.937 212.938 235.937 209.658 233.278 207 229.999 207ZM205.458 215.313C204.146 215.313 203.083 214.249 203.083 212.938 203.083 211.626 204.146 210.563 205.458 210.563 206.769 210.563 207.833 211.626 207.833 212.938 207.833 214.249 206.769 215.313 205.458 215.313ZM216.937 215.313C215.625 215.313 214.562 214.249 214.562 212.938 214.562 211.626 215.625 210.563 216.937 210.563 218.248 210.563 219.312 211.626 219.312 212.938 219.312 214.249 218.248 215.313 216.937 215.313ZM228.416 215.313C227.104 215.313 226.041 214.249 226.041 212.938 226.041 211.626 227.104 210.563 228.416 210.563 229.728 210.563 230.791 211.626 230.791 212.938 230.791 214.249 229.728 215.313 228.416 215.313Z" fill="#FFFFFF"/><path d="M222.407 172.167C222.407 172.823 221.875 173.354 221.22 173.354 220.564 173.354 220.032 172.823 220.032 172.167 220.032 171.511 220.564 170.979 221.22 170.979 221.875 170.979 222.407 171.511 222.407 172.167Z" fill="#FFFFFF"/><path d="M223.816 164.25 218.583 164.25 218.583 160.648C220.098 159.773 220.617 157.837 219.742 156.322 218.868 154.808 216.931 154.289 215.417 155.163 213.902 156.038 213.383 157.974 214.258 159.489 214.536 159.97 214.935 160.37 215.417 160.648L215.417 164.25 210.184 164.25C208.266 164.254 206.713 165.808 206.708 167.725L206.708 176.608C206.713 178.525 208.266 180.079 210.184 180.083L223.816 180.083C225.734 180.079 227.287 178.525 227.292 176.608L227.292 167.725C227.287 165.808 225.734 164.254 223.816 164.25ZM213.042 174.542C211.73 174.542 210.667 173.478 210.667 172.167 210.667 170.855 211.73 169.792 213.042 169.792 214.353 169.792 215.417 170.855 215.417 172.167 215.417 173.478 214.353 174.542 213.042 174.542ZM220.958 174.542C219.647 174.542 218.583 173.478 218.583 172.167 218.583 170.855 219.647 169.792 220.958 169.792 222.27 169.792 223.333 170.855 223.333 172.167 223.333 173.478 222.27 174.542 220.958 174.542Z" fill="#FFFFFF"/><path d="M214.49 172.167C214.49 172.823 213.959 173.354 213.303 173.354 212.647 173.354 212.115 172.823 212.115 172.167 212.115 171.511 212.647 170.979 213.303 170.979 213.959 170.979 214.49 171.511 214.49 172.167Z" fill="#FFFFFF"/><path d="M237.583 196.566 237.583 189.971C237.583 188.008 235.992 186.417 234.029 186.417L229.667 186.417 229.667 182.458 204.333 182.458 204.333 187.208 198.388 187.208C198.174 187.208 198 187.035 198 186.82L198 180.258C200.721 179.454 202.276 176.596 201.472 173.875 201.257 173.145 200.882 172.473 200.375 171.905L198 174.011C198.332 174.372 198.521 174.843 198.53 175.333 198.524 176.426 197.634 177.308 196.54 177.302 195.447 177.296 194.566 176.405 194.572 175.312 194.575 174.84 194.746 174.384 195.055 174.027L192.68 171.945C190.814 174.089 191.039 177.339 193.183 179.205 193.668 179.627 194.228 179.955 194.833 180.17L194.833 186.82C194.833 188.784 196.425 190.375 198.388 190.375L204.333 190.375 204.333 204.625 229.667 204.625 229.667 189.583 234.029 189.583C234.243 189.583 234.417 189.757 234.417 189.971L234.417 196.566C231.713 197.441 230.23 200.342 231.104 203.046 231.323 203.722 231.68 204.346 232.152 204.878L234.527 202.773C234.2 202.413 234.019 201.944 234.021 201.458 234.022 200.365 234.909 199.48 236.002 199.481 237.095 199.482 237.98 200.369 237.979 201.462 237.979 201.941 237.804 202.404 237.488 202.765L239.863 204.847C241.736 202.715 241.527 199.469 239.396 197.596 238.868 197.132 238.251 196.782 237.583 196.566ZM226.5 193.542 224.299 193.542C224.223 193.555 224.15 193.585 224.085 193.629L221.663 196.107 219.818 191.737 216.375 198.862 213.96 189.583 212.1 193.542 208.292 193.542 208.292 191.958 211.094 191.958 214.387 184.952 216.826 194.278 219.921 187.945 222.201 193.344 222.993 192.552C223.341 192.2 223.806 191.989 224.299 191.958L226.5 191.958Z" fill="#FFFFFF"/></g></g></g></g></svg>