<svg width="98" height="90" xmlns="http://www.w3.org/2000/svg" xmlns:xlink="http://www.w3.org/1999/xlink" overflow="hidden"><defs><clipPath id="clip0"><path d="M337 145 435 145 435 235 337 235Z" fill-rule="evenodd" clip-rule="evenodd"/></clipPath><clipPath id="clip1"><path d="M354 157 419 157 419 222 354 222Z" fill-rule="evenodd" clip-rule="evenodd"/></clipPath><clipPath id="clip2"><path d="M354 157 419 157 419 222 354 222Z" fill-rule="evenodd" clip-rule="evenodd"/></clipPath><clipPath id="clip3"><path d="M354 157 419 157 419 222 354 222Z" fill-rule="evenodd" clip-rule="evenodd"/></clipPath></defs><g clip-path="url(#clip0)" transform="translate(-337 -145)"><path d="M338 190C338 165.699 359.714 146 386.5 146 413.286 146 435 165.699 435 190 435 214.301 413.286 234 386.5 234 359.714 234 338 214.301 338 190Z" fill="#1F4E79" fill-rule="evenodd"/><g clip-path="url(#clip1)"><g clip-path="url(#clip2)"><g clip-path="url(#clip3)"><path d="M408.844 174.333C405.932 167.63 400.651 162.417 393.813 159.708L392.797 162.214C398.891 164.651 403.698 169.323 406.339 175.417 408.911 181.51 409.047 188.214 406.609 194.307 404.172 200.401 399.5 205.208 393.406 207.849 387.313 210.422 380.609 210.557 374.516 208.12L373.5 210.625C376.005 211.641 378.646 212.25 381.286 212.453L381.286 215.094 367.745 215.094 367.745 219.156 400.245 219.156 400.245 215.094 386.703 215.094 386.703 212.385C389.344 212.115 391.917 211.37 394.49 210.354 401.26 207.443 406.406 202.161 409.115 195.323 411.823 188.484 411.755 181.104 408.844 174.333Z" fill="#FFFFFF"/><path d="M405.797 185.167C405.797 197.32 395.945 207.172 383.792 207.172 371.639 207.172 361.786 197.32 361.786 185.167 361.786 173.014 371.639 163.161 383.792 163.161 395.945 163.161 405.797 173.014 405.797 185.167Z" fill="#FFFFFF"/></g></g></g></g></svg>