<svg width="98" height="89" xmlns="http://www.w3.org/2000/svg" xmlns:xlink="http://www.w3.org/1999/xlink" overflow="hidden"><defs><clipPath id="clip0"><path d="M169 347 267 347 267 436 169 436Z" fill-rule="evenodd" clip-rule="evenodd"/></clipPath><clipPath id="clip1"><path d="M184 353 265 353 265 435 184 435Z" fill-rule="evenodd" clip-rule="evenodd"/></clipPath><clipPath id="clip2"><path d="M184 353 265 353 265 435 184 435Z" fill-rule="evenodd" clip-rule="evenodd"/></clipPath><clipPath id="clip3"><path d="M184 353 265 353 265 435 184 435Z" fill-rule="evenodd" clip-rule="evenodd"/></clipPath></defs><g clip-path="url(#clip0)" transform="translate(-169 -347)"><path d="M170 391.5C170 366.923 191.49 347 218 347 244.51 347 266 366.923 266 391.5 266 416.077 244.51 436 218 436 191.49 436 170 416.077 170 391.5Z" fill="#1F4E79" fill-rule="evenodd"/><g clip-path="url(#clip1)"><g clip-path="url(#clip2)"><g clip-path="url(#clip3)"><path d="M11.8125 33.75 23.625 33.75 23.625 45.5625 11.8125 45.5625Z" fill="#FFFFFF" transform="matrix(1 0 -0 1.01235 184 353)"/><path d="M57.375 33.75 69.1875 33.75 69.1875 45.5625 57.375 45.5625Z" fill="#FFFFFF" transform="matrix(1 0 -0 1.01235 184 353)"/><path d="M11.8125 10.9688 23.625 10.9688 23.625 22.7813 11.8125 22.7813Z" fill="#FFFFFF" transform="matrix(1 0 -0 1.01235 184 353)"/><path d="M11.8125 56.5313 23.625 56.5313 23.625 68.3438 11.8125 68.3438Z" fill="#FFFFFF" transform="matrix(1 0 -0 1.01235 184 353)"/><path d="M42.1875 15.1875 27 15.1875 27 18.5625 38.8125 18.5625 38.8125 37.9688 27 37.9688 27 41.3438 38.8125 41.3438 38.8125 60.75 27 60.75 27 64.125 42.1875 64.125 42.1875 41.3438 54 41.3438 54 37.9688 42.1875 37.9688 42.1875 15.1875Z" fill="#FFFFFF" transform="matrix(1 0 -0 1.01235 184 353)"/></g></g></g></g></svg>