<svg width="98" height="90" xmlns="http://www.w3.org/2000/svg" xmlns:xlink="http://www.w3.org/1999/xlink" overflow="hidden"><defs><clipPath id="clip0"><path d="M337 344 435 344 435 434 337 434Z" fill-rule="evenodd" clip-rule="evenodd"/></clipPath><clipPath id="clip1"><path d="M349 353 426 353 426 430 349 430Z" fill-rule="evenodd" clip-rule="evenodd"/></clipPath><clipPath id="clip2"><path d="M349 353 426 353 426 430 349 430Z" fill-rule="evenodd" clip-rule="evenodd"/></clipPath><clipPath id="clip3"><path d="M349 353 426 353 426 430 349 430Z" fill-rule="evenodd" clip-rule="evenodd"/></clipPath></defs><g clip-path="url(#clip0)" transform="translate(-337 -344)"><path d="M338 389C338 364.699 359.714 345 386.5 345 413.286 345 435 364.699 435 389 435 413.301 413.286 433 386.5 433 359.714 433 338 413.301 338 389Z" fill="#1F4E79" fill-rule="evenodd"/><g clip-path="url(#clip1)"><g clip-path="url(#clip2)"><g clip-path="url(#clip3)"><path d="M386.778 368.801C384.933 368.801 383.409 370.325 383.409 372.17 383.409 374.015 384.933 375.539 386.778 375.539 388.623 375.539 390.147 374.015 390.147 372.17 390.147 370.325 388.623 368.801 386.778 368.801Z" fill="#FFFFFF"/><path d="M380.041 388.452C380.041 390.313 378.532 391.821 376.672 391.821 374.811 391.821 373.303 390.313 373.303 388.452 373.303 386.592 374.811 385.083 376.672 385.083 378.532 385.083 380.041 386.592 380.041 388.452Z" fill="#FFFFFF"/><path d="M396.323 373.293 394.318 374.255C394.157 374.897 393.836 375.458 393.516 376.02L394.237 378.105 392.633 379.709 390.548 378.987C389.986 379.308 389.425 379.549 388.783 379.709L387.821 381.634 385.575 381.634 384.612 379.629C383.971 379.469 383.409 379.228 382.848 378.907L380.763 379.629 379.158 378.025 379.88 375.94C379.559 375.378 379.319 374.817 379.158 374.175L377.153 373.212 377.153 370.967 379.158 370.004C379.319 369.362 379.559 368.801 379.88 368.24L379.239 366.154 380.843 364.55 382.928 365.272C383.49 364.951 384.051 364.71 384.693 364.55L385.655 362.545 387.901 362.545 388.864 364.47C389.505 364.63 390.067 364.871 390.628 365.192L392.714 364.47 394.318 366.074 393.596 368.159C393.917 368.721 394.157 369.282 394.318 369.924L396.323 370.886 396.323 373.293ZM386.217 389.575 384.211 390.538C384.051 391.179 383.81 391.741 383.49 392.302L384.131 394.388 382.527 395.992 380.442 395.27C379.88 395.591 379.319 395.831 378.677 395.992L377.795 397.917 375.549 397.917 374.586 395.911C373.945 395.751 373.383 395.51 372.822 395.19L370.736 395.831 369.132 394.227 369.854 392.142C369.533 391.58 369.293 391.019 369.132 390.377L367.127 389.415 367.127 387.169 369.132 386.206C369.293 385.565 369.533 385.003 369.854 384.442L369.132 382.356 370.736 380.752 372.822 381.474C373.383 381.153 373.945 380.913 374.586 380.752L375.549 378.747 377.875 378.747 378.837 380.752C379.479 380.913 380.041 381.153 380.602 381.474L382.688 380.752 384.292 382.356 383.57 384.442C383.891 385.003 384.131 385.565 384.292 386.206L386.297 387.169 386.217 389.575 386.217 389.575ZM413.969 392.543 408.434 382.918 408.434 382.517C408.755 373.694 404.264 365.432 396.644 360.86 389.024 356.369 379.64 356.369 372.02 360.86 364.4 365.352 359.908 373.694 360.229 382.517 360.229 390.136 363.678 397.275 369.694 401.927L369.694 422.22 395.04 422.22 395.04 412.595 398.97 412.595C401.536 412.595 403.943 411.552 405.707 409.788 407.472 407.943 408.434 405.536 408.434 402.97L408.434 398.157 411.964 398.157C414.049 397.917 415.894 395.51 413.969 392.543Z" fill="#FFFFFF"/></g></g></g></g></svg>